<svg width="19" height="19" viewBox="0 0 19 19" fill="none" xmlns="http://www.w3.org/2000/svg">
<g clip-path="url(#clip0_1_2140)">
<path d="M9.49968 7.12498C8.86979 7.12498 8.2657 7.3752 7.8203 7.8206C7.3749 8.266 7.12468 8.87009 7.12468 9.49998C7.12468 10.1299 7.3749 10.734 7.8203 11.1794C8.2657 11.6248 8.86979 11.875 9.49968 11.875C10.1296 11.875 10.7337 11.6248 11.1791 11.1794C11.6245 10.734 11.8747 10.1299 11.8747 9.49998C11.8747 8.87009 11.6245 8.266 11.1791 7.8206C10.7337 7.3752 10.1296 7.12498 9.49968 7.12498ZM9.49968 5.54165C10.5495 5.54165 11.5563 5.95868 12.2986 6.70102C13.041 7.44335 13.458 8.45017 13.458 9.49998C13.458 10.5498 13.041 11.5566 12.2986 12.2989C11.5563 13.0413 10.5495 13.4583 9.49968 13.4583C8.44986 13.4583 7.44304 13.0413 6.70071 12.2989C5.95838 11.5566 5.54134 10.5498 5.54134 9.49998C5.54134 8.45017 5.95838 7.44335 6.70071 6.70102C7.44304 5.95868 8.44986 5.54165 9.49968 5.54165V5.54165ZM14.6455 5.34373C14.6455 5.60618 14.5413 5.85789 14.3557 6.04347C14.1701 6.22905 13.9184 6.33331 13.6559 6.33331C13.3935 6.33331 13.1418 6.22905 12.9562 6.04347C12.7706 5.85789 12.6663 5.60618 12.6663 5.34373C12.6663 5.08128 12.7706 4.82957 12.9562 4.64399C13.1418 4.45841 13.3935 4.35415 13.6559 4.35415C13.9184 4.35415 14.1701 4.45841 14.3557 4.64399C14.5413 4.82957 14.6455 5.08128 14.6455 5.34373V5.34373ZM9.49968 3.16665C7.54109 3.16665 7.22126 3.17219 6.31005 3.21256C5.68938 3.24185 5.27297 3.32498 4.88663 3.4754C4.54305 3.6084 4.29526 3.76752 4.03163 4.03194C3.78385 4.27134 3.59333 4.56361 3.4743 4.88694C3.32388 5.27485 3.24076 5.69048 3.21226 6.31036C3.17109 7.18436 3.16634 7.48994 3.16634 9.49998C3.16634 11.4586 3.17188 11.7784 3.21226 12.6896C3.24155 13.3095 3.32467 13.7267 3.4743 14.1122C3.60888 14.4566 3.76722 14.7044 4.03005 14.9672C4.29684 15.2332 4.54463 15.3924 4.88505 15.5238C5.27613 15.675 5.69255 15.7589 6.31005 15.7874C7.18405 15.8286 7.48963 15.8333 9.49968 15.8333C11.4583 15.8333 11.7781 15.8278 12.6893 15.7874C13.3084 15.7581 13.7256 15.675 14.1119 15.5254C14.4547 15.3916 14.7041 15.2324 14.9669 14.9696C15.2337 14.7028 15.3928 14.455 15.5243 14.1146C15.6747 13.7243 15.7586 13.3071 15.7871 12.6896C15.8283 11.8156 15.833 11.51 15.833 9.49998C15.833 7.5414 15.8275 7.22156 15.7871 6.31036C15.7578 5.69127 15.6747 5.27327 15.5243 4.88694C15.4049 4.56394 15.2148 4.27178 14.9677 4.03194C14.7284 3.78402 14.4361 3.59349 14.1127 3.4746C13.7248 3.32419 13.3084 3.24106 12.6893 3.21256C11.8153 3.1714 11.5097 3.16665 9.49968 3.16665ZM9.49968 1.58331C11.6506 1.58331 11.919 1.59123 12.7629 1.63081C13.6061 1.6704 14.18 1.8026 14.6851 1.99894C15.2076 2.20002 15.6478 2.47235 16.0879 2.91173C16.4905 3.30748 16.802 3.7862 17.0007 4.31456C17.1963 4.81885 17.3293 5.3936 17.3688 6.23673C17.4061 7.08065 17.4163 7.34902 17.4163 9.49998C17.4163 11.6509 17.4084 11.9193 17.3688 12.7632C17.3293 13.6064 17.1963 14.1803 17.0007 14.6854C16.8025 15.2141 16.491 15.6929 16.0879 16.0882C15.6921 16.4907 15.2134 16.8021 14.6851 17.001C14.1808 17.1966 13.6061 17.3296 12.7629 17.3691C11.919 17.4064 11.6506 17.4166 9.49968 17.4166C7.34872 17.4166 7.08034 17.4087 6.23642 17.3691C5.3933 17.3296 4.81934 17.1966 4.31426 17.001C3.78568 16.8027 3.30688 16.4911 2.91142 16.0882C2.50879 15.6925 2.19729 15.2138 1.99863 14.6854C1.8023 14.1811 1.67009 13.6064 1.63051 12.7632C1.5933 11.9193 1.58301 11.6509 1.58301 9.49998C1.58301 7.34902 1.59092 7.08065 1.63051 6.23673C1.67009 5.39281 1.8023 4.81965 1.99863 4.31456C2.19674 3.78587 2.50831 3.30703 2.91142 2.91173C3.307 2.50895 3.78576 2.19743 4.31426 1.99894C4.81934 1.8026 5.39251 1.6704 6.23642 1.63081C7.08034 1.5936 7.34872 1.58331 9.49968 1.58331Z" fill="#E0BEA2"/>
</g>
<defs>
<clipPath id="clip0_1_2140">
<rect width="19" height="19" fill="white"/>
</clipPath>
</defs>
</svg>
