<svg width="19" height="19" viewBox="0 0 19 19" fill="none" xmlns="http://www.w3.org/2000/svg">
<g clip-path="url(#clip0_1_2143)">
<path d="M9.49968 15.8334C11.1794 15.8334 12.7903 15.1661 13.978 13.9784C15.1657 12.7907 15.833 11.1797 15.833 9.50004C15.833 7.82034 15.1657 6.20943 13.978 5.0217C12.7903 3.83397 11.1794 3.16671 9.49968 3.16671C7.81997 3.16671 6.20906 3.83397 5.02133 5.0217C3.8336 6.20943 3.16634 7.82034 3.16634 9.50004C3.16634 11.1797 3.8336 12.7907 5.02133 13.9784C6.20906 15.1661 7.81997 15.8334 9.49968 15.8334ZM9.49968 17.4167C5.1273 17.4167 1.58301 13.8724 1.58301 9.50004C1.58301 5.12767 5.1273 1.58337 9.49968 1.58337C13.8721 1.58337 17.4163 5.12767 17.4163 9.50004C17.4163 13.8724 13.8721 17.4167 9.49968 17.4167ZM7.03759 10.4263L5.06001 9.80958C4.63251 9.67896 4.63013 9.38446 5.1558 9.17308L12.8611 6.19642C13.3084 6.01433 13.5617 6.24471 13.4168 6.82183L12.1051 13.0127C12.0132 13.4536 11.748 13.5589 11.3799 13.3555L9.36034 11.8608L8.41905 12.7696C8.32247 12.863 8.24409 12.943 8.09526 12.9628C7.94722 12.9834 7.8253 12.939 7.73584 12.6936L7.04709 10.4207L7.03759 10.4263Z" fill="#E0BEA2"/>
</g>
<defs>
<clipPath id="clip0_1_2143">
<rect width="19" height="19" fill="white"/>
</clipPath>
</defs>
</svg>
